<?xml version="1.0" standalone="no"?>
<!DOCTYPE svg PUBLIC "-//W3C//DTD SVG 20010904//EN"
 "http://www.w3.org/TR/2001/REC-SVG-20010904/DTD/svg10.dtd">
<svg version="1.0" xmlns="http://www.w3.org/2000/svg"
 width="313.000000pt" height="313.000000pt" viewBox="0 0 313.000000 313.000000"
 preserveAspectRatio="xMidYMid meet">

<g transform="translate(0.000000,313.000000) scale(0.100000,-0.100000)"
fill="#000000" stroke="none">
<path d="M0 1565 l0 -1565 1565 0 1565 0 0 1565 0 1565 -1565 0 -1565 0 0
-1565z m1894 1500 c299 -68 540 -200 750 -411 323 -323 488 -770 447 -1212
-35 -388 -196 -723 -472 -988 -397 -379 -985 -514 -1514 -347 -394 124 -718
400 -902 768 -113 225 -153 384 -160 645 -4 157 -2 203 15 305 55 321 194 587
432 826 222 224 469 358 769 418 140 29 149 29 341 26 148 -2 193 -7 294 -30z"/>
<path d="M1307 3050 c-324 -59 -600 -209 -834 -453 -198 -208 -338 -490 -389
-782 -22 -130 -23 -367 -1 -490 151 -853 951 -1404 1788 -1231 365 76 673 274
903 580 290 388 372 902 216 1369 -88 262 -235 485 -431 653 -211 181 -411
282 -684 345 -136 31 -422 36 -568 9z m494 -44 c552 -90 1007 -494 1164 -1033
80 -278 71 -615 -26 -890 -111 -313 -341 -595 -626 -767 -446 -268 -1011 -274
-1465 -14 -625 356 -897 1122 -637 1793 178 459 575 796 1059 899 105 22 116
23 290 24 92 1 190 -4 241 -12z"/>
<path d="M1625 2808 c-28 -129 -26 -157 11 -158 12 0 24 44 24 88 0 36 14 17
35 -45 22 -69 49 -72 96 -10 18 23 36 46 39 50 4 4 3 -14 -1 -40 -12 -71 -11
-73 15 -73 22 0 25 6 36 81 6 45 10 82 8 84 -2 2 -15 6 -30 10 -23 6 -31 0
-68 -49 -23 -31 -46 -54 -50 -51 -5 3 -16 29 -25 58 -10 28 -24 58 -33 65 -25
19 -51 14 -57 -10z"/>
<path d="M1203 2777 c-39 -12 -74 -25 -77 -28 -6 -6 32 -140 44 -153 9 -9 170
32 170 43 -1 26 -18 30 -64 16 -61 -18 -76 -19 -76 -2 0 7 25 21 55 31 30 9
55 21 55 27 0 19 -30 21 -77 5 -56 -19 -53 -19 -53 -2 0 9 22 22 55 32 40 13
55 23 55 36 0 22 2 22 -87 -5z"/>
<path d="M2023 2702 c-8 -20 -23 -56 -34 -80 l-18 -43 22 -8 c12 -5 23 -8 23
-7 5 4 64 149 64 156 0 4 -9 10 -21 13 -17 4 -24 -2 -36 -31z"/>
<path d="M930 2659 c-38 -15 -80 -60 -80 -86 0 -38 33 -47 96 -27 30 9 57 14
61 11 11 -12 -18 -36 -63 -53 -25 -9 -43 -22 -41 -28 7 -19 66 -9 102 18 45
35 59 60 46 85 -15 28 -36 32 -88 16 -27 -8 -54 -15 -62 -15 -26 0 20 40 61
52 30 9 36 14 27 25 -13 15 -24 16 -59 2z"/>
<path d="M2167 2579 c-27 -39 -47 -72 -45 -73 96 -72 141 -98 149 -85 13 21
13 21 -41 57 l-50 32 36 55 c30 45 35 57 24 70 -7 8 -15 15 -19 15 -3 -1 -28
-33 -54 -71z"/>
<path d="M1406 2455 c-268 -56 -480 -205 -615 -432 -81 -137 -121 -287 -121
-457 0 -253 94 -472 276 -647 83 -79 141 -119 237 -165 127 -60 196 -76 357
-81 132 -4 154 -2 244 21 484 125 775 610 655 1091 -42 165 -132 319 -256 435
-118 112 -216 167 -382 216 -109 32 -290 41 -395 19z m379 -59 c88 -24 251
-107 323 -166 190 -156 312 -410 312 -655 0 -227 -80 -431 -234 -592 -117
-124 -270 -213 -431 -249 -113 -26 -292 -24 -400 5 -304 81 -535 313 -616 617
-28 106 -30 286 -5 399 21 95 91 248 146 321 124 164 309 284 505 328 89 20
313 15 400 -8z"/>
<path d="M1370 2360 c-285 -74 -514 -301 -591 -586 -29 -104 -31 -299 -6 -393
42 -153 99 -258 201 -368 299 -322 781 -349 1123 -64 111 93 199 226 249 381
25 76 28 100 28 230 1 173 -11 229 -84 377 -106 215 -307 372 -547 427 -101
23 -276 21 -373 -4z m401 -61 c132 -37 249 -109 349 -216 133 -142 190 -281
198 -485 5 -157 -12 -243 -73 -366 -127 -253 -357 -405 -635 -419 -330 -17
-616 164 -747 472 -77 181 -67 438 24 620 112 223 331 381 573 415 88 12 226
3 311 -21z"/>
<path d="M994 1791 c-95 -43 -132 -157 -80 -245 14 -24 43 -55 63 -68 37 -23
44 -23 330 -26 l292 -3 3 114 3 115 127 -109 c70 -60 130 -109 133 -109 3 0 5
50 5 110 0 61 3 110 6 110 3 0 66 -52 140 -116 130 -111 136 -115 177 -112
l42 3 -210 179 -210 180 -5 -116 -5 -117 -135 116 -135 116 -3 -151 -3 -152
-245 0 c-269 0 -284 3 -318 60 -31 53 -12 134 37 162 15 9 91 15 247 18 l225
5 3 28 3 27 -223 0 c-196 0 -228 -3 -264 -19z"/>
<path d="M2399 2401 l-66 -57 56 -67 c48 -56 58 -64 70 -52 12 11 8 21 -27 61
l-40 47 47 40 c25 22 48 41 50 43 1 1 -3 12 -11 23 -13 19 -16 17 -79 -38z"/>
<path d="M654 2429 c-18 -20 -18 -22 4 -84 42 -121 41 -119 58 -104 8 7 14 22
12 33 -1 12 10 38 26 59 22 28 33 36 50 31 14 -3 28 2 39 14 17 18 15 20 -60
41 -43 12 -85 24 -94 27 -9 2 -24 -5 -35 -17z m72 -39 c26 -10 26 -11 8 -31
-17 -19 -19 -19 -31 -3 -12 17 -18 44 -9 44 3 0 17 -5 32 -10z"/>
<path d="M487 2223 c-14 -13 -6 -34 17 -44 l25 -12 -26 -53 -27 -53 -27 15
c-26 13 -29 13 -39 -7 -7 -11 -10 -22 -8 -24 2 -1 36 -19 77 -40 58 -29 76
-34 82 -23 15 23 10 35 -20 48 l-30 12 26 53 c27 54 27 54 54 39 36 -18 36
-18 49 6 9 18 3 23 -60 55 -72 36 -82 39 -93 28z"/>
<path d="M2575 2173 c-38 -19 -71 -37 -73 -38 -3 -3 65 -144 74 -154 2 -2 10
-1 19 3 13 5 12 12 -10 57 -24 47 -27 79 -7 79 4 0 20 -25 35 -55 19 -39 31
-53 42 -49 19 8 20 6 -11 66 -17 34 -22 54 -15 61 7 7 19 -8 37 -47 27 -53 45
-68 59 -47 5 10 -65 161 -75 161 -3 -1 -36 -17 -75 -37z"/>
<path d="M2690 1893 c-41 -8 -76 -16 -77 -17 -1 -1 0 -12 4 -24 4 -17 12 -21
37 -19 25 2 32 -2 34 -21 2 -13 -7 -35 -22 -53 -28 -32 -31 -46 -17 -67 6 -11
14 -6 30 17 21 29 23 30 45 16 30 -20 73 -5 80 27 7 30 -16 151 -29 153 -5 2
-44 -4 -85 -12z m73 -80 c7 -39 -6 -65 -22 -47 -5 5 -12 26 -15 47 -6 32 -4
37 12 37 15 0 21 -9 25 -37z"/>
<path d="M345 1870 c-8 -16 -15 -52 -15 -80 0 -135 149 -135 179 0 13 57 5 90
-20 90 -15 0 -18 -5 -13 -24 3 -13 0 -42 -6 -65 -8 -31 -17 -42 -37 -47 -14
-4 -33 -2 -42 3 -22 14 -26 88 -7 118 21 31 20 35 -4 35 -11 0 -26 -12 -35
-30z"/>
<path d="M375 1436 c-53 -23 -67 -78 -39 -159 11 -34 21 -47 35 -47 23 0 23 7
4 53 -22 53 -19 84 10 103 48 32 85 -8 85 -93 0 -37 3 -44 16 -39 9 3 18 6 20
6 10 0 3 83 -10 113 -25 60 -72 84 -121 63z"/>
<path d="M2651 1413 c-16 -30 -34 -144 -25 -152 10 -9 115 -31 146 -31 32 0
19 44 -13 48 -39 5 -27 47 22 78 24 15 39 32 39 44 0 24 -8 25 -39 4 -21 -15
-24 -15 -42 5 -24 26 -75 28 -88 4z m55 -75 c-8 -50 -8 -50 -29 -42 -12 4 -15
14 -11 33 10 46 13 51 30 51 14 0 15 -7 10 -42z"/>
<path d="M468 1124 c-70 -35 -74 -39 -59 -63 8 -12 14 -12 40 -1 37 15 32 18
61 -39 24 -48 24 -46 -25 -76 -14 -9 -14 -13 -2 -29 13 -17 16 -17 85 18 69
35 89 60 58 72 -8 3 -24 1 -35 -5 -18 -10 -23 -6 -47 41 -15 29 -22 54 -17 55
27 9 44 30 37 46 -9 23 -19 21 -96 -19z"/>
<path d="M2545 1090 c-19 -38 -35 -74 -35 -80 0 -8 129 -80 145 -80 11 0 76
143 71 156 -10 25 -21 15 -49 -41 -15 -30 -31 -55 -35 -55 -20 0 -19 14 3 63
13 28 22 54 19 59 -12 20 -32 4 -54 -42 -13 -27 -26 -50 -30 -50 -18 0 -17 17
5 61 29 56 30 65 10 73 -11 4 -25 -14 -50 -64z"/>
<path d="M657 812 c-84 -25 -86 -26 -70 -44 10 -11 25 -17 34 -15 25 7 83 -56
76 -82 -5 -20 27 -60 36 -44 2 4 17 45 32 91 26 80 26 84 9 103 -9 10 -20 18
-23 18 -3 -1 -45 -13 -94 -27z m73 -62 c-11 -21 -12 -21 -31 -4 -21 19 -16 30
16 36 25 5 30 -5 15 -32z"/>
<path d="M2511 784 l-41 -47 -51 43 c-48 40 -52 42 -67 26 -16 -16 -14 -20 28
-57 85 -76 85 -75 118 -37 80 91 83 95 68 107 -11 9 -22 2 -55 -35z"/>
<path d="M900 650 c-24 -24 -17 -45 37 -101 19 -20 31 -39 26 -42 -14 -9 -65
20 -89 50 -22 25 -22 25 -33 5 -9 -17 -6 -24 22 -48 64 -54 125 -65 146 -26
12 23 -1 51 -38 86 -38 36 -43 63 -8 45 12 -6 34 -23 49 -37 24 -22 28 -23 34
-8 8 21 -25 59 -71 80 -43 21 -51 20 -75 -4z"/>
<path d="M2138 636 c-15 -11 -12 -19 33 -84 l50 -72 69 48 c38 26 69 49 69 52
1 3 -3 11 -8 19 -7 11 -19 7 -61 -23 -29 -21 -53 -36 -54 -34 -2 2 -17 24 -35
50 -38 57 -42 60 -63 44z"/>
<path d="M1998 562 c-25 -5 -23 -19 13 -100 26 -58 34 -69 51 -64 23 6 20 23
-19 109 -21 44 -32 58 -45 55z"/>
<path d="M1165 538 c-11 -30 -45 -144 -45 -150 0 -4 30 -17 68 -28 37 -11 74
-23 83 -26 10 -3 18 2 21 14 5 16 -4 22 -53 36 -38 10 -59 21 -59 31 0 19 16
19 71 0 34 -12 44 -13 51 -3 13 22 10 25 -44 40 -33 9 -54 21 -56 31 -3 17 3
16 106 -17 18 -6 22 -4 22 13 0 16 -13 24 -72 42 -40 11 -76 23 -81 26 -4 2
-9 -2 -12 -9z"/>
<path d="M1802 493 c-5 -10 -17 -42 -26 -70 -10 -29 -19 -53 -21 -53 -3 0 -23
25 -46 55 -33 44 -47 55 -70 55 -15 0 -30 -3 -32 -7 -6 -10 18 -161 26 -169 3
-4 14 -4 23 0 14 5 16 15 10 64 l-7 57 38 -53 c30 -41 43 -51 62 -50 20 3 28
14 46 68 21 64 22 64 28 31 4 -18 7 -44 7 -57 0 -19 5 -24 25 -24 29 0 29 4
14 101 -11 66 -13 69 -40 69 -17 0 -32 -7 -37 -17z"/>
</g>
</svg>
